<svg width="24" height="24" viewBox="0 0 24 24" fill="none" xmlns="http://www.w3.org/2000/svg">
<path d="M6.10557 13.5528C5.93092 13.9021 5.97559 14.3211 6.21996 14.6257C6.46432 14.9304 6.86367 15.0649 7.24254 14.9701L9.79973 14.3308L9.01005 19.8586C8.94069 20.3441 9.23369 20.8083 9.70183 20.9545C10.17 21.1008 10.6751 20.8859 10.8944 20.4472L15.8944 10.4472C16.0691 10.0979 16.0244 9.6789 15.78 9.37427C15.5357 9.06964 15.1363 8.93514 14.7575 9.02986L12.2003 9.66916L12.9899 4.14142C13.0593 3.65589 12.7663 3.19172 12.2982 3.04549C11.83 2.89925 11.3249 3.11411 11.1056 3.55279L6.10557 13.5528Z" stroke="black" stroke-width="2" stroke-linejoin="round"/>
</svg>
