<svg width="40" height="41" viewBox="0 0 40 41" fill="none" xmlns="http://www.w3.org/2000/svg">
<circle cx="20" cy="20.5132" r="20" fill="#006AA7"/>
<circle cx="34" cy="34.5132" r="4.5" fill="black" stroke="white"/>
<path d="M37.468 34.6892C37.3653 34.8385 37.2533 34.9879 37.132 35.1372C37.02 35.2772 36.894 35.4032 36.754 35.5152C36.6233 35.6272 36.4693 35.7205 36.292 35.7952C36.124 35.8605 35.9327 35.8932 35.718 35.8932C35.4567 35.8932 35.2093 35.8512 34.976 35.7672C34.752 35.6739 34.5233 35.5619 34.29 35.4312C34.066 35.3005 33.8233 35.1885 33.562 35.0952C33.3007 34.9925 33.0067 34.9412 32.68 34.9412C32.5213 34.9412 32.3813 34.9739 32.26 35.0392C32.148 35.0952 32.0407 35.1699 31.938 35.2632C31.8447 35.3472 31.7607 35.4452 31.686 35.5572C31.6207 35.6692 31.56 35.7812 31.504 35.8932L31 34.7172C31.0747 34.5679 31.1633 34.4232 31.266 34.2832C31.378 34.1339 31.504 34.0032 31.644 33.8912C31.784 33.7792 31.9427 33.6905 32.12 33.6252C32.3067 33.5505 32.5167 33.5132 32.75 33.5132C32.9927 33.5132 33.2447 33.5599 33.506 33.6532C33.7673 33.7372 34.0333 33.8399 34.304 33.9612C34.5653 34.0732 34.822 34.1852 35.074 34.2972C35.326 34.4092 35.5453 34.4652 35.732 34.4652C35.872 34.4652 35.998 34.4372 36.11 34.3812C36.2313 34.3159 36.3387 34.2412 36.432 34.1572C36.5347 34.0639 36.628 33.9612 36.712 33.8492C36.796 33.7372 36.88 33.6252 36.964 33.5132L37.468 34.6892Z" fill="white"/>
<path fill-rule="evenodd" clip-rule="evenodd" d="M20.0427 15.1799V21.0133L15.8 25.1381C16.8858 26.1937 18.3858 26.8466 20.0427 26.8466C23.3564 26.8466 26.0427 24.2349 26.0427 21.0133C26.0427 17.7916 23.3564 15.1799 20.0427 15.1799Z" fill="white"/>
<path fill-rule="evenodd" clip-rule="evenodd" d="M18.5 6.42993H21.5V9.43686C27.4195 10.1545 32 15.0638 32 21.0133C32 27.4566 26.6274 32.6799 20 32.6799C13.3726 32.6799 8 27.4566 8 21.0133C8 18.3172 8.94061 15.8348 10.5202 13.8592L8.3327 11.7325L10.454 9.67011L12.6415 11.7968C14.3013 10.5424 16.3089 9.70249 18.5 9.43686V6.42993ZM20 29.7633C24.9706 29.7633 29 25.8458 29 21.0133C29 16.1808 24.9706 12.2633 20 12.2633C15.0294 12.2633 11 16.1808 11 21.0133C11 25.8458 15.0294 29.7633 20 29.7633Z" fill="white"/>
</svg>
