<svg width="24" height="24" viewBox="0 0 24 24" fill="none" xmlns="http://www.w3.org/2000/svg">
<path fill-rule="evenodd" clip-rule="evenodd" d="M13 4C12.4477 4 12 4.44772 12 5C12 5.55228 12.4477 6 13 6H14.3027L14.711 7.10816L9.43191 10.6542C8.90092 10.1114 8.25845 9.67811 7.54153 9.39136L7.98058 7.19612C8.03934 6.90234 7.96328 6.5977 7.77334 6.36601C7.5834 6.13432 7.29959 6 7 6H5C4.44772 6 4 6.44772 4 7C4 7.55228 4.44772 8 5 8H5.7802L5.58008 9.00057C5.55343 9.00019 5.52674 9 5.5 9C2.46243 9 0 11.4624 0 14.5C0 17.5376 2.46243 20 5.5 20C8.53757 20 11 17.5376 11 14.5C11 13.7231 10.8389 12.9837 10.5483 12.3136L15.4225 9.03952L15.6917 9.77002C14.0799 10.729 13 12.4884 13 14.5C13 17.5376 15.4624 20 18.5 20C21.5376 20 24 17.5376 24 14.5C24 11.4624 21.5376 9 18.5 9C18.1824 9 17.8712 9.02691 17.5683 9.07858L15.9383 4.65429C15.7935 4.26117 15.419 4 15 4H13ZM16.4021 11.6982L17.5617 14.8457C17.7526 15.3639 18.3275 15.6293 18.8457 15.4383C19.3639 15.2474 19.6293 14.6725 19.4383 14.1543L18.2788 11.0069C18.3519 11.0023 18.4257 11 18.5 11C20.433 11 22 12.567 22 14.5C22 16.433 20.433 18 18.5 18C16.567 18 15 16.433 15 14.5C15 13.354 15.5508 12.3367 16.4021 11.6982ZM7.72676 11.7996C7.54515 11.6497 7.34816 11.5177 7.13852 11.4064L6.95639 12.3171L7.72676 11.7996ZM5.17726 11.0147L4.51942 14.3039C4.43997 14.7011 4.60803 15.107 4.94501 15.3319C5.28199 15.5567 5.72132 15.556 6.0576 15.3301L8.84268 13.4593C8.94492 13.7881 9 14.1376 9 14.5C9 16.433 7.433 18 5.5 18C3.567 18 2 16.433 2 14.5C2 12.6758 3.39555 11.1776 5.17726 11.0147Z" fill="black"/>
</svg>
