<svg width="24" height="24" viewBox="0 0 24 24" fill="none" xmlns="http://www.w3.org/2000/svg">
<path d="M10.9999 6C12.1044 6 12.9999 5.10457 12.9999 4C12.9999 2.89543 12.1044 2 10.9999 2C9.89528 2 8.99985 2.89543 8.99985 4C8.99985 5.10457 9.89528 6 10.9999 6Z" fill="black"/>
<path d="M13.747 7.33528C13.5638 7.12957 13.297 7 12.9999 7H8.99985C8.70275 7 8.43591 7.12957 8.25275 7.33527C8.00464 7.45487 7.80675 7.67585 7.72513 7.96152L6.27457 13.0385C6.12285 13.5695 6.43034 14.123 6.96138 14.2747C7.49241 14.4264 8.0459 14.119 8.19762 13.5879L8.99985 10.7801V13C8.99985 13.1811 9.02393 13.3566 9.06906 13.5235C8.973 13.6579 8.90896 13.818 8.88942 13.9939L8.11028 21.0061C8.04929 21.555 8.44483 22.0494 8.99374 22.1104C9.54264 22.1714 10.0371 21.7759 10.0981 21.227L10.7911 14.9892C10.8597 14.9964 10.9294 15 10.9999 15C11.0703 15 11.14 14.9964 11.2086 14.9892L11.2271 15.1557C11.5789 14.5048 12.2894 14 12.9999 14C12.9999 13.8985 13.0102 13.797 13.0298 13.6965C13.0024 13.6351 12.9691 13.5772 12.9306 13.5235C12.9758 13.3566 12.9999 13.1811 12.9999 13V10.7801L13.5495 12.7039C13.9313 12.2855 14.4656 12 14.9999 12H15.4284L14.2746 7.96152C14.193 7.67585 13.9951 7.45487 13.747 7.33528Z" fill="black"/>
<path fill-rule="evenodd" clip-rule="evenodd" d="M19 15H20C20.5523 15 21 15.4477 21 16V21C21 21.5523 20.5523 22 20 22H13C12.4477 22 12 21.5523 12 21V16C12 15.4477 12.4477 15 13 15H14L14 14.4755C13.9998 14.3747 13.9997 14.2284 14.0139 14.1005C14.0285 13.9691 14.0763 13.6344 14.3554 13.3554C14.6344 13.0763 14.9691 13.0285 15.1005 13.0139C15.2284 12.9997 15.3747 12.9998 15.4755 13H17.5244C17.6253 12.9998 17.7715 12.9997 17.8995 13.0139C18.0308 13.0285 18.3655 13.0763 18.6446 13.3554C18.9237 13.6344 18.9715 13.9691 18.986 14.1005C19.0003 14.2284 19.0001 14.3747 19 14.4755L19 15ZM15 14.5V15H18V14.5C18 14.25 18 14.125 17.9375 14.0625C17.875 14 17.75 14 17.5 14H15.5C15.25 14 15.125 14 15.0625 14.0625C15 14.125 15 14.25 15 14.5ZM13 16V18H15V17.5H18V18H20V16H13ZM13 18.5H15V19.5H18V18.5H20V21H13V18.5ZM15.5 19H17.5V18H15.5V19Z" fill="black"/>
</svg>
