<svg width="24" height="24" viewBox="0 0 24 24" fill="none" xmlns="http://www.w3.org/2000/svg">
<path fill-rule="evenodd" clip-rule="evenodd" d="M19 10H17V9C17 8.42477 16.7225 7.93324 16.3946 7.60539C16.0668 7.27755 15.5752 7 15 7H11C10.4248 7 9.93324 7.27755 9.60539 7.60539C9.27755 7.93324 9 8.42477 9 9V10H7C5.89543 10 5 10.8954 5 12V20C5 21.1046 5.89543 22 7 22H19C20.1046 22 21 21.1046 21 20V12C21 10.8954 20.1046 10 19 10ZM16 9V10H10V9C10 8.5 10.5 8 11 8H15C15.5 8 16 8.5 16 9ZM7 16V20H19V16H15V17H11V16H7ZM11 15V14H15V15H19V12H7V15H11ZM12 15H14V16H12V15Z" fill="black"/>
</svg>
