<svg width="256" height="80" viewBox="0 0 256 80" fill="none" xmlns="http://www.w3.org/2000/svg">
<path d="M213.802 23.3333V10H179.089V70H248.516V23.3333H213.802ZM192.974 63.3333H186.032V56.6667H192.974V63.3333ZM192.974 50H186.032V43.3333H192.974V50ZM192.974 36.6667H186.032V30H192.974V36.6667ZM192.974 23.3333H186.032V16.6667H192.974V23.3333ZM206.86 63.3333H199.917V56.6667H206.86V63.3333ZM206.86 50H199.917V43.3333H206.86V50ZM206.86 36.6667H199.917V30H206.86V36.6667ZM206.86 23.3333H199.917V16.6667H206.86V23.3333ZM241.573 63.3333H213.802V56.6667H220.745V50H213.802V43.3333H220.745V36.6667H213.802V30H241.573V63.3333ZM234.631 36.6667H227.688V43.3333H234.631V36.6667ZM234.631 50H227.688V56.6667H234.631V50Z" fill="#FFDA03"/>
<path fill-rule="evenodd" clip-rule="evenodd" d="M146.647 48.6303L144.399 47.3323C143.462 47.3681 142.583 47.0473 141.904 46.4843L141.51 46.8731C141.506 46.8768 141.502 46.8805 141.499 46.8842C141.496 46.8866 141.494 46.889 141.491 46.8914L141.013 47.3638C140.722 47.6509 140.634 48.0852 140.789 48.4633C140.944 48.8413 141.312 49.0882 141.721 49.0882H142.94C143.205 49.0882 143.459 48.9838 143.648 48.7976L143.841 48.6066H144.459L145.494 51.126L143.328 53.2646C141.723 52.0694 139.729 51.3628 137.575 51.3628C132.311 51.3628 128 55.5826 128 60.8418C128 66.1011 132.311 70.3209 137.575 70.3209C142.58 70.3209 146.724 66.5053 147.119 61.6085H150.451C150.466 61.6089 150.482 61.6089 150.497 61.6085H150.5C150.765 61.6085 151.019 61.5041 151.208 61.318L154.775 57.7961C154.491 58.6797 154.338 59.6219 154.338 60.6011C154.338 65.7274 158.54 69.8393 163.669 69.8393C168.798 69.8393 173 65.7274 173 60.6011C173 55.4748 168.798 51.3628 163.669 51.3628C162.782 51.3628 161.924 51.4857 161.109 51.7154L157.285 42.4009C157.129 42.0229 156.761 41.7761 156.353 41.7761H156.124C156.179 41.9908 156.209 42.2158 156.209 42.4477C156.209 43.007 156.038 43.5264 155.745 43.9565L158.409 50.4441H154.824L154.284 52.459H157.313L153.194 56.5253L152.746 58.1991C152.362 59.6323 150.889 60.4828 149.455 60.0988C149.08 59.9983 148.745 59.8231 148.461 59.5936H147.068C146.817 57.7057 146.007 55.9974 144.81 54.6327L146.321 53.1408L147.663 56.4083L148.523 53.1983L148.219 52.459H148.721L149.261 50.4441H147.392L146.647 48.6303ZM145.03 59.5936C144.802 58.2595 144.216 57.0456 143.373 56.0517L139.786 59.5936H145.03ZM141.873 54.7008C140.653 53.8665 139.172 53.3778 137.575 53.3778C133.4 53.3778 130.015 56.7195 130.015 60.8418C130.015 64.9641 133.4 68.3059 137.575 68.3059C141.488 68.3059 144.707 65.3706 145.095 61.6085H137.331C136.923 61.6085 136.554 61.3617 136.399 60.9836C136.244 60.6056 136.333 60.1713 136.623 59.8842L141.873 54.7008ZM160.011 54.3443L162.737 60.9838C162.948 61.4985 163.537 61.7444 164.051 61.533C164.566 61.3217 164.812 60.7331 164.601 60.2184L161.881 53.595C162.453 53.4531 163.052 53.3778 163.669 53.3778C167.71 53.3778 170.985 56.6117 170.985 60.6011C170.985 64.5904 167.71 67.8244 163.669 67.8244C159.628 67.8244 156.353 64.5904 156.353 60.6011C156.353 57.9276 157.824 55.5933 160.011 54.3443Z" fill="#006AA7"/>
<path d="M141.433 29.3507C141.433 30.649 142.485 31.7015 143.784 31.7015C145.082 31.7015 146.135 30.649 146.135 29.3507C146.135 28.0525 145.082 27 143.784 27C142.485 27 141.433 28.0525 141.433 29.3507Z" fill="#006AA7"/>
<path d="M143.099 32.6198C141.808 32.7561 140.872 33.9132 141.008 35.2043L141.924 43.8874C142.061 45.1785 143.218 46.1147 144.509 45.9785C144.572 45.9719 144.633 45.9628 144.694 45.9515L150.896 49.5322L148.854 57.1561C148.662 57.8727 149.087 58.6093 149.804 58.8013C150.52 58.9933 151.257 58.568 151.449 57.8514L153.637 49.6838C153.657 49.6553 153.675 49.6259 153.693 49.5956C154.064 48.9531 153.844 48.1315 153.201 47.7606L146.594 43.9458C146.6 43.8946 146.605 43.843 146.608 43.791H153.522C154.264 43.791 154.866 43.1896 154.866 42.4477C154.866 41.7059 154.264 41.1045 153.522 41.1045H147.541L145.956 37.2879L145.684 34.7109C145.547 33.4198 144.39 32.4836 143.099 32.6198Z" fill="#006AA7"/>
<path fill-rule="evenodd" clip-rule="evenodd" d="M100.647 41.6303L98.3991 40.3323C97.4618 40.3681 96.5828 40.0473 95.9038 39.4843L95.51 39.8731C95.5061 39.8768 95.5023 39.8805 95.4985 39.8842C95.4961 39.8866 95.4938 39.889 95.4914 39.8914L95.0129 40.3638C94.7221 40.6509 94.6336 41.0852 94.7888 41.4633C94.9439 41.8413 95.3121 42.0882 95.7208 42.0882H96.9401C97.2051 42.0882 97.4594 41.9838 97.6479 41.7976L97.8414 41.6066H98.4594L99.494 44.126L97.3279 46.2646C95.7232 45.0694 93.7288 44.3628 91.5749 44.3628C86.3111 44.3628 82 48.5826 82 53.8418C82 59.1011 86.3111 63.3209 91.5749 63.3209C96.5802 63.3209 100.724 59.5053 101.119 54.6085H104.451C104.466 54.6089 104.482 54.6089 104.497 54.6085H104.5C104.765 54.6085 105.019 54.5041 105.208 54.318L108.775 50.7961C108.491 51.6797 108.338 52.6219 108.338 53.6011C108.338 58.7274 112.54 62.8393 117.669 62.8393C122.798 62.8393 127 58.7274 127 53.6011C127 48.4748 122.798 44.3628 117.669 44.3628C116.782 44.3628 115.924 44.4857 115.109 44.7154L111.285 35.4009C111.129 35.0229 110.761 34.7761 110.353 34.7761H110.124C110.179 34.9908 110.209 35.2158 110.209 35.4477C110.209 36.007 110.038 36.5264 109.745 36.9565L112.409 43.4441H108.824L108.284 45.459H111.313L107.194 49.5253L106.746 51.1991C106.362 52.6323 104.889 53.4828 103.455 53.0988C103.08 52.9983 102.745 52.8231 102.461 52.5936H101.068C100.817 50.7057 100.007 48.9974 98.8102 47.6327L100.321 46.1408L101.663 49.4083L102.523 46.1983L102.219 45.459H102.721L103.261 43.4441H101.392L100.647 41.6303ZM99.0296 52.5936C98.8021 51.2595 98.2162 50.0456 97.3729 49.0517L93.7855 52.5936H99.0296ZM95.8733 47.7008C94.6528 46.8665 93.1717 46.3778 91.5749 46.3778C87.3996 46.3778 84.0149 49.7195 84.0149 53.8418C84.0149 57.9641 87.3996 61.3059 91.5749 61.3059C95.488 61.3059 98.7067 58.3706 99.0954 54.6085H91.3312C90.9225 54.6085 90.5543 54.3617 90.3992 53.9836C90.244 53.6056 90.3325 53.1713 90.6233 52.8842L95.8733 47.7008ZM114.011 47.3443L116.737 53.9838C116.948 54.4985 117.537 54.7444 118.051 54.533C118.566 54.3217 118.812 53.7331 118.601 53.2184L115.881 46.595C116.453 46.4531 117.052 46.3778 117.669 46.3778C121.71 46.3778 124.985 49.6117 124.985 53.6011C124.985 57.5904 121.71 60.8244 117.669 60.8244C113.628 60.8244 110.353 57.5904 110.353 53.6011C110.353 50.9276 111.824 48.5933 114.011 47.3443Z" fill="#006AA7"/>
<path d="M95.433 22.3507C95.433 23.649 96.4855 24.7015 97.7838 24.7015C99.082 24.7015 100.135 23.649 100.135 22.3507C100.135 21.0525 99.082 20 97.7838 20C96.4855 20 95.433 21.0525 95.433 22.3507Z" fill="#006AA7"/>
<path d="M97.0991 25.6198C95.808 25.7561 94.8718 26.9132 95.008 28.2043L95.9244 36.8874C96.0606 38.1785 97.2177 39.1147 98.5088 38.9785C98.5715 38.9719 98.6334 38.9628 98.6944 38.9515L104.896 42.5322L102.854 50.1561C102.662 50.8727 103.087 51.6093 103.804 51.8013C104.52 51.9933 105.257 51.568 105.449 50.8514L107.637 42.6838C107.657 42.6553 107.675 42.6259 107.693 42.5956C108.064 41.9531 107.844 41.1315 107.201 40.7606L100.594 36.9458C100.6 36.8946 100.605 36.843 100.608 36.791H107.522C108.264 36.791 108.866 36.1896 108.866 35.4477C108.866 34.7059 108.264 34.1045 107.522 34.1045H101.541L99.9555 30.2879L99.6836 27.7109C99.5473 26.4198 98.3902 25.4836 97.0991 25.6198Z" fill="#006AA7"/>
<path fill-rule="evenodd" clip-rule="evenodd" d="M53.6474 48.6303L51.3991 47.3323C50.4618 47.3681 49.5828 47.0473 48.9038 46.4843L48.51 46.8731C48.5061 46.8768 48.5023 46.8805 48.4985 46.8842C48.4961 46.8866 48.4938 46.889 48.4914 46.8914L48.0129 47.3638C47.7221 47.6509 47.6336 48.0852 47.7888 48.4633C47.9439 48.8413 48.3121 49.0882 48.7208 49.0882H49.9401C50.2051 49.0882 50.4594 48.9838 50.6479 48.7976L50.8414 48.6066H51.4594L52.494 51.126L50.3279 53.2646C48.7232 52.0694 46.7288 51.3628 44.5749 51.3628C39.3111 51.3628 35 55.5826 35 60.8418C35 66.1011 39.3111 70.3209 44.5749 70.3209C49.5802 70.3209 53.7242 66.5053 54.119 61.6085H57.4508C57.4662 61.6089 57.4817 61.6089 57.4972 61.6085H57.5001C57.7651 61.6085 58.0194 61.5041 58.2079 61.318L61.7751 57.7961C61.4913 58.6797 61.338 59.6219 61.338 60.6011C61.338 65.7274 65.5399 69.8393 70.669 69.8393C75.798 69.8393 80 65.7274 80 60.6011C80 55.4748 75.798 51.3628 70.669 51.3628C69.7824 51.3628 68.9236 51.4857 68.1093 51.7154L64.2847 42.4009C64.1295 42.0229 63.7613 41.7761 63.3527 41.7761H63.124C63.1793 41.9908 63.2086 42.2158 63.2086 42.4477C63.2086 43.007 63.0377 43.5264 62.7453 43.9565L65.4091 50.4441H61.8237L61.2838 52.459H64.3128L60.1943 56.5253L59.7458 58.1991C59.3618 59.6323 57.8886 60.4828 56.4554 60.0988C56.0803 59.9983 55.7451 59.8231 55.4615 59.5936H54.0677C53.8174 57.7057 53.0072 55.9974 51.8102 54.6327L53.3212 53.1408L54.6629 56.4083L55.5231 53.1983L55.2195 52.459H55.7212L56.2611 50.4441H54.3921L53.6474 48.6303ZM52.0296 59.5936C51.8021 58.2595 51.2162 57.0456 50.3729 56.0517L46.7855 59.5936H52.0296ZM48.8733 54.7008C47.6528 53.8665 46.1717 53.3778 44.5749 53.3778C40.3996 53.3778 37.0149 56.7195 37.0149 60.8418C37.0149 64.9641 40.3996 68.3059 44.5749 68.3059C48.488 68.3059 51.7067 65.3706 52.0954 61.6085H44.3312C43.9225 61.6085 43.5543 61.3617 43.3992 60.9836C43.244 60.6056 43.3325 60.1713 43.6233 59.8842L48.8733 54.7008ZM67.0106 54.3443L69.7368 60.9838C69.9482 61.4985 70.5368 61.7444 71.0515 61.533C71.5662 61.3217 71.8121 60.7331 71.6008 60.2184L68.8811 53.595C69.4533 53.4531 70.0522 53.3778 70.669 53.3778C74.7096 53.3778 77.9851 56.6117 77.9851 60.6011C77.9851 64.5904 74.7096 67.8244 70.669 67.8244C66.6284 67.8244 63.3529 64.5904 63.3529 60.6011C63.3529 57.9276 64.824 55.5933 67.0106 54.3443Z" fill="#006AA7"/>
<path d="M48.433 29.3507C48.433 30.649 49.4855 31.7015 50.7838 31.7015C52.082 31.7015 53.1345 30.649 53.1345 29.3507C53.1345 28.0525 52.082 27 50.7838 27C49.4855 27 48.433 28.0525 48.433 29.3507Z" fill="#006AA7"/>
<path d="M50.0991 32.6198C48.808 32.7561 47.8718 33.9132 48.008 35.2043L48.9244 43.8874C49.0606 45.1785 50.2177 46.1147 51.5088 45.9785C51.5715 45.9719 51.6334 45.9628 51.6944 45.9515L57.8965 49.5322L55.8537 57.1561C55.6617 57.8727 56.0869 58.6093 56.8035 58.8013C57.5201 58.9933 58.2567 58.568 58.4487 57.8514L60.6372 49.6838C60.6567 49.6553 60.6752 49.6259 60.6927 49.5956C61.0637 48.9531 60.8435 48.1315 60.201 47.7606L53.5935 43.9458C53.6002 43.8946 53.6052 43.843 53.6084 43.791H60.5225C61.2644 43.791 61.8658 43.1896 61.8658 42.4477C61.8658 41.7059 61.2644 41.1045 60.5225 41.1045H54.5408L52.9555 37.2879L52.6836 34.7109C52.5473 33.4198 51.3902 32.4836 50.0991 32.6198Z" fill="#006AA7"/>
<path fill-rule="evenodd" clip-rule="evenodd" d="M18.6474 39.6303L16.3991 38.3323C15.4618 38.3681 14.5828 38.0473 13.9038 37.4843L13.51 37.8731C13.5061 37.8768 13.5023 37.8805 13.4985 37.8842C13.4961 37.8866 13.4938 37.889 13.4914 37.8914L13.0129 38.3638C12.7221 38.6509 12.6336 39.0852 12.7888 39.4633C12.9439 39.8413 13.3121 40.0882 13.7208 40.0882H14.9401C15.2051 40.0882 15.4594 39.9838 15.6479 39.7976L15.8414 39.6066H16.4594L17.494 42.126L15.3279 44.2646C13.7232 43.0694 11.7288 42.3628 9.57488 42.3628C4.31114 42.3628 0 46.5826 0 51.8418C0 57.1011 4.31114 61.3209 9.57488 61.3209C14.5802 61.3209 18.7242 57.5053 19.119 52.6085H22.4508C22.4662 52.6089 22.4817 52.6089 22.4972 52.6085H22.5001C22.7651 52.6085 23.0194 52.5041 23.2079 52.318L26.7751 48.7961C26.4913 49.6797 26.338 50.6219 26.338 51.6011C26.338 56.7274 30.5399 60.8393 35.669 60.8393C40.798 60.8393 45 56.7274 45 51.6011C45 46.4748 40.798 42.3628 35.669 42.3628C34.7824 42.3628 33.9236 42.4857 33.1093 42.7154L29.2847 33.4009C29.1295 33.0229 28.7613 32.7761 28.3527 32.7761H28.124C28.1793 32.9908 28.2086 33.2158 28.2086 33.4477C28.2086 34.007 28.0377 34.5264 27.7453 34.9565L30.4091 41.4441H26.8237L26.2838 43.459H29.3128L25.1943 47.5253L24.7458 49.1991C24.3618 50.6323 22.8886 51.4828 21.4554 51.0988C21.0803 50.9983 20.7451 50.8231 20.4615 50.5936H19.0677C18.8174 48.7057 18.0072 46.9974 16.8102 45.6327L18.3212 44.1408L19.6629 47.4083L20.5231 44.1983L20.2195 43.459H20.7212L21.2611 41.4441H19.3921L18.6474 39.6303ZM17.0296 50.5936C16.8021 49.2595 16.2162 48.0456 15.3729 47.0517L11.7855 50.5936H17.0296ZM13.8733 45.7008C12.6528 44.8665 11.1717 44.3778 9.57488 44.3778C5.39963 44.3778 2.01492 47.7195 2.01492 51.8418C2.01492 55.9641 5.39963 59.3059 9.57488 59.3059C13.488 59.3059 16.7067 56.3706 17.0954 52.6085H9.33115C8.9225 52.6085 8.55433 52.3617 8.39916 51.9836C8.24398 51.6056 8.33253 51.1713 8.62333 50.8842L13.8733 45.7008ZM32.0106 45.3443L34.7368 51.9838C34.9482 52.4985 35.5368 52.7444 36.0515 52.533C36.5662 52.3217 36.8121 51.7331 36.6008 51.2184L33.8811 44.595C34.4533 44.4531 35.0522 44.3778 35.669 44.3778C39.7096 44.3778 42.9851 47.6117 42.9851 51.6011C42.9851 55.5904 39.7096 58.8244 35.669 58.8244C31.6284 58.8244 28.3529 55.5904 28.3529 51.6011C28.3529 48.9276 29.824 46.5933 32.0106 45.3443Z" fill="#006AA7"/>
<path d="M13.433 20.3507C13.433 21.649 14.4855 22.7015 15.7838 22.7015C17.082 22.7015 18.1345 21.649 18.1345 20.3507C18.1345 19.0525 17.082 18 15.7838 18C14.4855 18 13.433 19.0525 13.433 20.3507Z" fill="#006AA7"/>
<path d="M15.0991 23.6198C13.808 23.7561 12.8718 24.9132 13.008 26.2043L13.9244 34.8874C14.0606 36.1785 15.2177 37.1147 16.5088 36.9785C16.5715 36.9719 16.6334 36.9628 16.6944 36.9515L22.8965 40.5322L20.8537 48.1561C20.6617 48.8727 21.0869 49.6093 21.8035 49.8013C22.5201 49.9933 23.2567 49.568 23.4487 48.8514L25.6372 40.6838C25.6567 40.6553 25.6752 40.6259 25.6927 40.5956C26.0637 39.9531 25.8435 39.1315 25.201 38.7606L18.5935 34.9458C18.6002 34.8946 18.6052 34.843 18.6084 34.791H25.5225C26.2644 34.791 26.8658 34.1896 26.8658 33.4477C26.8658 32.7059 26.2644 32.1045 25.5225 32.1045H19.5408L17.9555 28.2879L17.6836 25.7109C17.5473 24.4198 16.3902 23.4836 15.0991 23.6198Z" fill="#006AA7"/>
</svg>
