<svg width="40" height="41" viewBox="0 0 40 41" fill="none" xmlns="http://www.w3.org/2000/svg">
<circle cx="20" cy="20.5264" r="20" fill="#FFDA03"/>
<circle cx="34" cy="34.5264" r="4.5" fill="black" stroke="white"/>
<path d="M35 36.5264H33V34.5264H31L34 31.5264L37 34.5264H35V36.5264Z" fill="white"/>
<path fill-rule="evenodd" clip-rule="evenodd" d="M30.3946 26.5264C31.4156 24.7613 32 22.7121 32 20.5264C32 13.899 26.6274 8.52637 20 8.52637C13.3726 8.52637 8 13.899 8 20.5264C8 22.7121 8.58437 24.7613 9.60539 26.5264H30.3946ZM22.8535 16.0791C23.0607 15.7204 23.5193 15.5974 23.8781 15.8046C24.2368 16.0117 24.3597 16.4704 24.1526 16.8291L20.924 22.4211C20.7169 22.7798 20.2582 22.9027 19.8995 22.6956C19.5408 22.4885 19.4179 22.0298 19.625 21.6711L22.8535 16.0791ZM11.75 20.5264C11.75 15.97 15.4437 12.2764 20 12.2764C20.9656 12.2764 21.8909 12.4419 22.7501 12.7456C23.1406 12.8836 23.5691 12.679 23.7071 12.2884C23.8452 11.8979 23.6405 11.4694 23.2499 11.3314C22.2324 10.9717 21.1382 10.7764 20 10.7764C14.6152 10.7764 10.25 15.1416 10.25 20.5264C10.25 21.6646 10.4454 22.7588 10.805 23.7763C10.943 24.1668 11.3715 24.3715 11.7621 24.2335C12.1526 24.0955 12.3573 23.667 12.2192 23.2764C11.9156 22.4173 11.75 21.492 11.75 20.5264Z" fill="black"/>
</svg>
