<svg width="32" height="32" viewBox="0 0 32 32" fill="none" xmlns="http://www.w3.org/2000/svg">
<path fill-rule="evenodd" clip-rule="evenodd" d="M10 9H22C22.5523 9 23 9.44772 23 10V12.2887L24.3861 11.2107C24.5687 11.0686 24.7852 10.9999 25 11V10C25 8.34315 23.6569 7 22 7H10C8.34315 7 7 8.34315 7 10V22C7 23.6569 8.34315 25 10 25H22C23.6569 25 25 23.6569 25 22V13.2669L23 14.8225V22C23 22.5523 22.5523 23 22 23H10C9.44772 23 9 22.5523 9 22V10C9 9.44772 9.44772 9 10 9Z" fill="black"/>
<path fill-rule="evenodd" clip-rule="evenodd" d="M12.2929 15.2929L10.8787 13.8787C12.0503 12.7071 13.9497 12.7071 15.1213 13.8787L16.2487 15.006L23.1582 9.63194C24.466 8.61473 26.3508 8.85034 27.3681 10.1582L25.7894 11.3861C25.4503 10.9501 24.822 10.8716 24.3861 11.2106C24.3859 11.2108 24.3862 11.2105 24.3861 11.2106L16.0829 17.6687L13.7074 15.2932C13.7073 15.2931 13.7075 15.2933 13.7074 15.2932C13.3169 14.9027 12.6834 14.9024 12.2929 15.2929ZM12.2933 16.7075C11.9028 16.317 11.9024 15.6834 12.2929 15.2929L10.8787 13.8787C9.70711 15.0503 9.70711 16.9497 10.8787 18.1213L13.8787 21.1213C14.9485 22.1911 16.6476 22.2969 17.8418 21.3681L26.8418 14.3681C28.1497 13.3508 28.3853 11.466 27.3681 10.1582L25.7894 11.3861C26.1284 11.822 26.0499 12.4503 25.6139 12.7894C25.6142 12.7892 25.6137 12.7895 25.6139 12.7894L16.6139 19.7894C16.2159 20.099 15.6495 20.0637 15.2929 19.7071L12.2933 16.7075Z" fill="black"/>
</svg>
