<svg width="32" height="32" viewBox="0 0 32 32" fill="none" xmlns="http://www.w3.org/2000/svg">
<path d="M11.1056 18.5528C10.9309 18.9021 10.9756 19.3211 11.22 19.6257C11.4643 19.9304 11.8637 20.0649 12.2425 19.9701L14.8473 19.319L14.0061 26.8896C13.9526 27.3712 14.2521 27.8218 14.7168 27.9591C15.1815 28.0963 15.6777 27.8806 15.8944 27.4472L21.8944 15.4472C22.0691 15.0979 22.0244 14.6789 21.78 14.3743C21.5357 14.0696 21.1363 13.9351 20.7575 14.0299L18.1527 14.681L18.9939 7.11043C19.0474 6.62884 18.7479 6.17818 18.2832 6.04095C17.8185 5.90371 17.3223 6.11939 17.1056 6.55279L11.1056 18.5528Z" stroke="black" stroke-width="2" stroke-linejoin="round"/>
</svg>
