<svg width="42" height="31" viewBox="0 0 42 31" fill="none" xmlns="http://www.w3.org/2000/svg">
<path fill-rule="evenodd" clip-rule="evenodd" d="M40.2517 29.4007C39.9335 30.1292 39.214 30.6 38.419 30.6H3.58097C2.78602 30.6 2.06654 30.1292 1.74826 29.4007C0.623143 26.8256 0 23.983 0 21C0 9.40202 9.40202 0 21 0C32.598 0 42 9.40202 42 21C42 23.983 41.3769 26.8256 40.2517 29.4007Z" fill="#FFDA03"/>
<path d="M7 20C7 12.268 13.268 6 21 6" stroke="black" stroke-width="2" stroke-linecap="round" stroke-linejoin="round" stroke-dasharray="1 6"/>
<path d="M23.1201 23.2792C22.8342 24.3461 21.7375 24.9792 20.6706 24.6934C19.6036 24.4075 18.9705 23.3108 19.2564 22.2439C19.5422 21.1769 24.2624 7.02082 25.3293 7.3067C26.3962 7.59258 23.4059 22.2122 23.1201 23.2792Z" fill="black"/>
</svg>
