<svg width="42" height="31" viewBox="0 0 42 31" fill="none" xmlns="http://www.w3.org/2000/svg">
<path fill-rule="evenodd" clip-rule="evenodd" d="M40.2517 29.4007C39.9335 30.1292 39.214 30.6 38.419 30.6H3.58097C2.78602 30.6 2.06654 30.1292 1.74826 29.4007C0.623143 26.8256 0 23.983 0 21C0 9.40202 9.40202 0 21 0C32.598 0 42 9.40202 42 21C42 23.983 41.3769 26.8256 40.2517 29.4007Z" fill="#006AA7"/>
<path d="M7 20C7 12.268 13.268 6 21 6" stroke="white" stroke-width="2" stroke-linecap="round" stroke-linejoin="round" stroke-dasharray="1 6"/>
<path d="M22.6371 23.1497C22.4227 23.9499 21.6002 24.4248 20.8 24.2104C19.9998 23.996 19.5249 23.1735 19.7393 22.3733C19.8757 21.8644 21.1199 18.0777 22.4687 14.4419C23.1422 12.6266 23.836 10.8645 24.4251 9.57818C24.6605 9.0642 24.874 8.63764 25.0584 8.31775C25.0581 8.68698 25.0298 9.16315 24.9766 9.72597C24.8437 11.1345 24.5635 13.0074 24.2391 14.9163C23.5893 18.7394 22.7735 22.6409 22.6371 23.1497Z" fill="white" stroke="white"/>
</svg>
