<svg width="75" height="73" viewBox="0 0 75 73" fill="none" xmlns="http://www.w3.org/2000/svg">
<path fill-rule="evenodd" clip-rule="evenodd" d="M31.079 36.1076L27.3319 33.9443C25.7697 34.004 24.3047 33.4692 23.1729 32.5309L22.5166 33.1788C22.5102 33.185 22.5039 33.1912 22.4976 33.1975C22.4936 33.2015 22.4896 33.2054 22.4856 33.2094L21.6882 33.9968C21.2036 34.4753 21.056 35.1992 21.3146 35.8292C21.5732 36.4593 22.1869 36.8707 22.8679 36.8707H24.9002C25.3418 36.8707 25.7656 36.6967 26.0799 36.3865L26.4024 36.0681H27.4324L29.1566 40.2671L25.5465 43.8314C22.8719 41.8394 19.548 40.6618 15.9581 40.6618C7.18524 40.6618 0 47.6947 0 56.4602C0 65.2256 7.18524 72.2585 15.9581 72.2585C24.3004 72.2585 31.207 65.8992 31.865 57.738H37.4179C37.4437 57.7386 37.4695 57.7386 37.4954 57.738H37.5002C37.9418 57.738 38.3656 57.564 38.6799 57.2537L44.6252 51.3839C44.1522 52.8565 43.8966 54.4269 43.8966 56.0589C43.8966 64.6027 50.8999 71.4559 59.4483 71.4559C67.9967 71.4559 75 64.6027 75 56.0589C75 47.515 67.9967 40.6618 59.4483 40.6618C57.9707 40.6618 56.5393 40.8666 55.1822 41.2494L48.8078 25.7253C48.5491 25.0953 47.9355 24.684 47.2545 24.684H46.8734C46.9654 25.0417 47.0144 25.4168 47.0144 25.8033C47.0144 26.7355 46.7295 27.6011 46.2421 28.318L50.6819 39.1306H44.7062L43.8064 42.4888H48.8547L41.9904 49.266L41.243 52.0556C40.6029 54.4442 38.1477 55.8617 35.759 55.2217C35.1338 55.0542 34.5751 54.7623 34.1024 54.3798H31.7795C31.3624 51.2333 30.0119 48.3861 28.017 46.1115L30.5354 43.625L32.7716 49.071L34.2051 43.721L33.6991 42.4888H34.5353L35.4351 39.1306H32.3202L31.079 36.1076ZM28.3827 54.3798C28.0035 52.1563 27.0269 50.1331 25.6215 48.4766L19.6425 54.3798H28.3827ZM23.1221 46.2251C21.0881 44.8346 18.6194 44.02 15.9581 44.02C8.99939 44.02 3.35821 49.5897 3.35821 56.4602C3.35821 63.3307 8.99939 68.9003 15.9581 68.9003C22.4799 68.9003 27.8444 64.0082 28.4924 57.738H15.5519C14.8708 57.738 14.2572 57.3266 13.9986 56.6965C13.74 56.0664 13.8876 55.3425 14.3722 54.864L23.1221 46.2251ZM53.351 45.6309L57.8947 56.6967C58.247 57.5545 59.2279 57.9644 60.0858 57.6122C60.9436 57.2599 61.3535 56.2789 61.0013 55.4211L56.4685 44.3821C57.4221 44.1456 58.4204 44.02 59.4483 44.02C66.1826 44.02 71.6418 49.41 71.6418 56.0589C71.6418 62.7077 66.1826 68.0977 59.4483 68.0977C52.714 68.0977 47.2548 62.7077 47.2548 56.0589C47.2548 51.603 49.7067 47.7126 53.351 45.6309Z" fill="#006AA7"/>
<path d="M22.3884 3.97491C22.3884 6.13871 24.1425 7.89282 26.3063 7.89282C28.4701 7.89282 30.2243 6.13871 30.2243 3.97491C30.2243 1.81111 28.4701 0.0570068 26.3063 0.0570068C24.1425 0.0570068 22.3884 1.81111 22.3884 3.97491Z" fill="#006AA7"/>
<path d="M25.1653 9.42339C23.0134 9.65047 21.4531 11.579 21.6802 13.7308L23.2073 28.2027C23.4344 30.3545 25.3629 31.9149 27.5148 31.6878C27.6193 31.6768 27.7225 31.6617 27.8241 31.6428L38.1609 37.6107L34.7562 50.3172C34.4362 51.5115 35.1449 52.7391 36.3393 53.0592C37.5336 53.3792 38.7612 52.6704 39.0812 51.4761L42.7288 37.8633C42.7612 37.8159 42.7921 37.7669 42.8213 37.7163C43.4395 36.6455 43.0726 35.2763 42.0018 34.658L30.9893 28.2999C31.0004 28.2147 31.0087 28.1287 31.0141 28.0421H42.5376C43.774 28.0421 44.7764 27.0397 44.7764 25.8032C44.7764 24.5668 43.774 23.5644 42.5376 23.5644H32.5681L29.9259 17.2035L29.4727 12.9085C29.2456 10.7566 27.3171 9.19631 25.1653 9.42339Z" fill="#006AA7"/>
</svg>
