<svg width="24" height="24" viewBox="0 0 24 24" fill="none" xmlns="http://www.w3.org/2000/svg">
<path fill-rule="evenodd" clip-rule="evenodd" d="M19 6C19.5523 6 20 6.44772 20 7V13C20.5523 13 21 13.4477 21 14V20C21 20.5523 20.5523 21 20 21H4C3.44772 21 3 20.5523 3 20V10C3 9.64353 3.18976 9.31401 3.49807 9.13509C3.80639 8.95617 4.18664 8.9549 4.49614 9.13176L10 12.2768V10C10 9.64353 10.1898 9.31401 10.4981 9.13509C10.8064 8.95617 11.1866 8.9549 11.4961 9.13176L17 12.2768V7C17 6.44772 17.4477 6 18 6H19ZM14 14H11V17H14V14ZM8 14H5V17H8V14Z" fill="black" />
</svg>
