<svg width="30" height="40" viewBox="0 0 30 40" fill="none" xmlns="http://www.w3.org/2000/svg">
<path d="M29.5 29C29.2882 33.0256 22 40 15 40C8.00009 40 1.678 32.067 1.00011 28C2.09808e-05 22 2.50003 15 5.50001 13.5C5.00001 15.5 5.50001 17.5 6.5 19.5C7.70415 21.9083 9 23.5 11.5 24C9 21.5 8.5 18 9 14.5C9.5657 10.5402 13 2.5 16.5 0C15.5 5.5 17 12 20.5 14.5C24.1392 17.0994 30 19.5 29.5 29Z" fill="#FFDA03"/>
<path d="M25 29.7646C25 34.1829 21.4183 37.7646 17 37.7646C12.5817 37.7646 9 34.1829 9 29.7646C9 28.1704 9.50003 27 10 26C11 27.5 13.5 27 15 26C14 25 12.8888 22.7354 12.5 21.5C13.7894 19.8065 14.6844 19.0277 17 17.7646C18 20.7646 25 25.3464 25 29.7646Z" fill="black"/>
</svg>
