<svg width="40" height="40" viewBox="0 0 40 40" fill="none" xmlns="http://www.w3.org/2000/svg">
<g filter="url(#filter0_d_7767_44970)">
<path fill-rule="evenodd" clip-rule="evenodd" d="M13.2823 26.7175C12.6966 26.1317 12.6966 25.182 13.2823 24.5962L24.596 13.2825C25.1818 12.6967 26.1316 12.6967 26.7174 13.2825C27.3032 13.8683 27.3032 14.818 26.7174 15.4038L15.4037 26.7175C14.8179 27.3033 13.8681 27.3033 13.2823 26.7175Z" fill="black"/>
<path fill-rule="evenodd" clip-rule="evenodd" d="M13.2826 13.2825C13.8684 12.6967 14.8181 12.6967 15.4039 13.2825L26.7176 24.5962C27.3034 25.182 27.3034 26.1317 26.7176 26.7175C26.1318 27.3033 25.1821 27.3033 24.5963 26.7175L13.2826 15.4038C12.6968 14.818 12.6968 13.8682 13.2826 13.2825Z" fill="black"/>
</g>
<defs>
<filter id="filter0_d_7767_44970" x="-5" y="-3" width="50" height="50" filterUnits="userSpaceOnUse" color-interpolation-filters="sRGB">
<feFlood flood-opacity="0" result="BackgroundImageFix"/>
<feColorMatrix in="SourceAlpha" type="matrix" values="0 0 0 0 0 0 0 0 0 0 0 0 0 0 0 0 0 0 127 0" result="hardAlpha"/>
<feOffset dy="2"/>
<feGaussianBlur stdDeviation="2.5"/>
<feComposite in2="hardAlpha" operator="out"/>
<feColorMatrix type="matrix" values="0 0 0 0 0 0 0 0 0 0 0 0 0 0 0 0 0 0 0.12 0"/>
<feBlend mode="normal" in2="BackgroundImageFix" result="effect1_dropShadow_7767_44970"/>
<feBlend mode="normal" in="SourceGraphic" in2="effect1_dropShadow_7767_44970" result="shape"/>
</filter>
</defs>
</svg>
