<svg width="56" height="56" viewBox="0 0 56 56" fill="none" xmlns="http://www.w3.org/2000/svg">
<path d="M49 28C49 32.6228 47.4746 37.1165 44.6604 40.784C41.8462 44.4515 37.9005 47.088 33.4352 48.2844C28.9699 49.4809 24.2346 49.1705 19.9636 47.4015C15.6927 45.6324 12.1249 42.5035 9.81347 38.5C7.50206 34.4965 6.57626 29.8422 7.17966 25.259C7.78306 20.6757 9.88193 16.4196 13.1508 13.1508C16.4196 9.88193 20.6757 7.78306 25.2589 7.17966C29.8422 6.57626 34.4965 7.50206 38.5 9.81347" stroke="#2196F3" stroke-width="5" stroke-linecap="round"/>
<path d="M45.7483 15.9164C45.7995 17.0533 44.7602 17.9305 43.6481 17.6891L35.4792 15.9165C34.0728 15.6113 33.6286 13.8248 34.7283 12.8965L42.5212 6.31862C43.6209 5.39036 45.3075 6.12816 45.3722 7.5658L45.7483 15.9164Z" fill="#2196F3"/>
<path d="M21.2634 29.3039H23.3724C23.33 30.024 23.1396 30.6633 22.801 31.2218C22.4672 31.7802 21.9993 32.2162 21.3974 32.5297C20.8002 32.8432 20.0808 33 19.2391 33C18.5808 33 17.9906 32.8824 17.4687 32.6473C16.9467 32.4073 16.5 32.0644 16.1285 31.6186C15.7618 31.1728 15.482 30.6339 15.2892 30.002C15.0964 29.3701 15 28.6622 15 27.8784V27.1363C15 26.3525 15.0987 25.6446 15.2962 25.0127C15.4984 24.3759 15.7853 23.8346 16.1568 23.3888C16.5329 22.943 16.982 22.6001 17.504 22.3601C18.0259 22.12 18.609 22 19.2532 22C20.109 22 20.8308 22.1617 21.4186 22.485C22.0111 22.8083 22.4695 23.2541 22.794 23.8223C23.1231 24.3906 23.3206 25.0372 23.3865 25.7622H21.2705C21.2469 25.3311 21.1647 24.9662 21.0236 24.6673C20.8825 24.3636 20.6686 24.1358 20.3817 23.984C20.0996 23.8272 19.7234 23.7488 19.2532 23.7488C18.9005 23.7488 18.5925 23.8174 18.3292 23.9546C18.0659 24.0917 17.8449 24.2999 17.6662 24.5792C17.4875 24.8584 17.3535 25.2111 17.2641 25.6373C17.1795 26.0586 17.1372 26.5533 17.1372 27.1216V27.8784C17.1372 28.432 17.1771 28.9194 17.2571 29.3407C17.337 29.7571 17.4593 30.1098 17.6239 30.3988C17.7931 30.6829 18.0094 30.8985 18.2728 31.0454C18.5408 31.1875 18.8629 31.2585 19.2391 31.2585C19.6811 31.2585 20.0455 31.185 20.3324 31.0381C20.6192 30.8911 20.8378 30.6731 20.9883 30.3841C21.1435 30.0951 21.2352 29.735 21.2634 29.3039Z" fill="#2196F3"/>
<path d="M33.7119 27.4189V27.9243C33.7119 28.7349 33.6021 29.4624 33.3823 30.1069C33.1626 30.7515 32.8525 31.3008 32.4521 31.7549C32.0518 32.2041 31.5732 32.5483 31.0166 32.7876C30.4648 33.0269 29.8521 33.1465 29.1782 33.1465C28.5093 33.1465 27.8965 33.0269 27.3398 32.7876C26.7881 32.5483 26.3096 32.2041 25.9043 31.7549C25.499 31.3008 25.1841 30.7515 24.9595 30.1069C24.7397 29.4624 24.6299 28.7349 24.6299 27.9243V27.4189C24.6299 26.6035 24.7397 25.876 24.9595 25.2363C25.1792 24.5918 25.4893 24.0425 25.8896 23.5884C26.2949 23.1343 26.7734 22.7876 27.3252 22.5483C27.8818 22.3091 28.4946 22.1895 29.1636 22.1895C29.8374 22.1895 30.4502 22.3091 31.002 22.5483C31.5586 22.7876 32.0371 23.1343 32.4375 23.5884C32.8428 24.0425 33.1553 24.5918 33.375 25.2363C33.5996 25.876 33.7119 26.6035 33.7119 27.4189ZM31.4927 27.9243V27.4043C31.4927 26.8379 31.4414 26.3398 31.3389 25.9102C31.2363 25.4805 31.085 25.1191 30.8848 24.8262C30.6846 24.5332 30.4404 24.3135 30.1523 24.167C29.8643 24.0156 29.5347 23.9399 29.1636 23.9399C28.7925 23.9399 28.4629 24.0156 28.1748 24.167C27.8916 24.3135 27.6499 24.5332 27.4497 24.8262C27.2544 25.1191 27.1055 25.4805 27.0029 25.9102C26.9004 26.3398 26.8491 26.8379 26.8491 27.4043V27.9243C26.8491 28.4858 26.9004 28.9839 27.0029 29.4185C27.1055 29.8481 27.2568 30.2119 27.457 30.5098C27.6572 30.8027 27.9014 31.0249 28.1895 31.1763C28.4775 31.3276 28.8071 31.4033 29.1782 31.4033C29.5493 31.4033 29.8789 31.3276 30.167 31.1763C30.4551 31.0249 30.6968 30.8027 30.8921 30.5098C31.0874 30.2119 31.2363 29.8481 31.3389 29.4185C31.4414 28.9839 31.4927 28.4858 31.4927 27.9243Z" fill="#2196F3"/>
<path d="M40.3516 34.9014V36H35.4883V35.0625L37.7881 32.5967C38.0192 32.3395 38.2015 32.1133 38.335 31.918C38.4684 31.7194 38.5645 31.542 38.623 31.3857C38.6849 31.2262 38.7158 31.0749 38.7158 30.9316C38.7158 30.7168 38.68 30.5329 38.6084 30.3799C38.5368 30.2236 38.431 30.1032 38.291 30.0186C38.1543 29.9339 37.985 29.8916 37.7832 29.8916C37.5684 29.8916 37.3828 29.9437 37.2266 30.0479C37.0736 30.152 36.9564 30.2969 36.875 30.4824C36.7969 30.668 36.7578 30.8779 36.7578 31.1123H35.3467C35.3467 30.6891 35.4476 30.3018 35.6494 29.9502C35.8512 29.5954 36.1361 29.3138 36.5039 29.1055C36.8717 28.8939 37.3079 28.7881 37.8125 28.7881C38.3105 28.7881 38.7305 28.8695 39.0723 29.0322C39.4173 29.1917 39.6777 29.4229 39.8535 29.7256C40.0326 30.0251 40.1221 30.3831 40.1221 30.7998C40.1221 31.0342 40.0846 31.2637 40.0098 31.4883C39.9349 31.7096 39.8275 31.931 39.6875 32.1523C39.5508 32.3704 39.3848 32.5918 39.1895 32.8164C38.9941 33.041 38.7777 33.2738 38.54 33.5146L37.3047 34.9014H40.3516Z" fill="#2196F3"/>
</svg>
