<svg width="24" height="24" viewBox="0 0 24 24" fill="none" xmlns="http://www.w3.org/2000/svg">
<path d="M15.8203 4.76487C14.3234 3.97442 12.6154 3.66657 10.9321 3.88819C9.14638 4.12328 7.48816 4.94102 6.21459 6.21459C4.94102 7.48816 4.12328 9.14638 3.88819 10.9321C3.6531 12.7178 4.0138 14.5311 4.91435 16.0909C5.8149 17.6507 7.20497 18.8698 8.86896 19.559C10.533 20.2483 12.3779 20.3692 14.1176 19.903C15.8573 19.4369 17.3946 18.4097 18.4911 16.9808C19.5875 15.5519 20.1818 13.8011 20.1818 12C20.1818 11.4979 20.5888 11.0909 21.0909 11.0909C21.593 11.0909 22 11.4979 22 12C22 14.2013 21.2736 16.3412 19.9335 18.0876C18.5934 19.8341 16.7145 21.0895 14.5882 21.6593C12.4619 22.229 10.2069 22.0812 8.17318 21.2388C6.1394 20.3964 4.44043 18.9064 3.33976 17C2.23909 15.0936 1.79823 12.8773 2.08557 10.6947C2.3729 8.51224 3.37236 6.48553 4.92894 4.92894C6.48553 3.37236 8.51224 2.3729 10.6947 2.08557C12.8773 1.79823 15.0936 2.23909 17 3.33976C17.0998 3.39738 17.1846 3.47107 17.2529 3.55568L18.2863 2.68339C18.7623 2.28154 19.4925 2.60094 19.5205 3.22329L19.6833 6.83825C19.7054 7.33041 19.2556 7.71016 18.7741 7.60568L15.2378 6.8383C14.629 6.70619 14.4367 5.93281 14.9127 5.53097L15.8203 4.76487Z" fill="black"/>
<path d="M8.03516 12.3975H9.05713C9.03662 12.7324 8.94434 13.0298 8.78027 13.2896C8.61849 13.5493 8.39176 13.7521 8.1001 13.8979C7.81071 14.0438 7.46208 14.1167 7.0542 14.1167C6.73519 14.1167 6.44922 14.062 6.19629 13.9526C5.94336 13.841 5.72689 13.6815 5.54688 13.4741C5.36914 13.2668 5.23356 13.0161 5.14014 12.7222C5.04671 12.4282 5 12.099 5 11.7344V11.3892C5 11.0246 5.04785 10.6953 5.14355 10.4014C5.24154 10.1051 5.38053 9.85335 5.56055 9.646C5.74284 9.43864 5.96045 9.27913 6.21338 9.16748C6.46631 9.05583 6.74886 9 7.06104 9C7.47575 9 7.82552 9.0752 8.11035 9.22559C8.39746 9.37598 8.61963 9.58333 8.77686 9.84766C8.93636 10.112 9.03206 10.4128 9.06396 10.75H8.03857C8.02718 10.5495 7.9873 10.3797 7.91895 10.2407C7.85059 10.0994 7.74691 9.99349 7.60791 9.92285C7.47119 9.84993 7.2889 9.81348 7.06104 9.81348C6.89014 9.81348 6.74089 9.84538 6.61328 9.90918C6.48568 9.97298 6.37858 10.0698 6.29199 10.1997C6.2054 10.3296 6.14046 10.4937 6.09717 10.6919C6.05615 10.8879 6.03564 11.118 6.03564 11.3823V11.7344C6.03564 11.9919 6.05501 12.2186 6.09375 12.4146C6.13249 12.6082 6.19173 12.7723 6.27148 12.9067C6.35352 13.0389 6.45833 13.1392 6.58594 13.2075C6.71582 13.2736 6.87191 13.3066 7.0542 13.3066C7.26839 13.3066 7.44499 13.2725 7.58398 13.2041C7.72298 13.1357 7.82894 13.0343 7.90186 12.8999C7.97705 12.7655 8.02148 12.598 8.03516 12.3975Z" fill="black"/>
<path d="M14.2184 11.4438V11.6797C14.2184 12.0579 14.1671 12.3975 14.0646 12.6982C13.962 12.999 13.8173 13.2554 13.6305 13.4673C13.4436 13.6769 13.2203 13.8376 12.9605 13.9492C12.7031 14.0609 12.4171 14.1167 12.1026 14.1167C11.7905 14.1167 11.5045 14.0609 11.2447 13.9492C10.9872 13.8376 10.7639 13.6769 10.5748 13.4673C10.3857 13.2554 10.2387 12.999 10.1339 12.6982C10.0313 12.3975 9.98008 12.0579 9.98008 11.6797V11.4438C9.98008 11.0633 10.0313 10.7238 10.1339 10.4253C10.2364 10.1245 10.3811 9.86816 10.568 9.65625C10.7571 9.44434 10.9804 9.28255 11.2379 9.1709C11.4977 9.05924 11.7836 9.00342 12.0958 9.00342C12.4103 9.00342 12.6962 9.05924 12.9537 9.1709C13.2135 9.28255 13.4368 9.44434 13.6236 9.65625C13.8128 9.86816 13.9586 10.1245 14.0611 10.4253C14.1659 10.7238 14.2184 11.0633 14.2184 11.4438ZM13.1827 11.6797V11.437C13.1827 11.1727 13.1588 10.9403 13.1109 10.7397C13.0631 10.5392 12.9924 10.3706 12.899 10.2339C12.8056 10.0972 12.6917 9.99463 12.5572 9.92627C12.4228 9.85563 12.269 9.82031 12.0958 9.82031C11.9226 9.82031 11.7688 9.85563 11.6344 9.92627C11.5022 9.99463 11.3894 10.0972 11.296 10.2339C11.2049 10.3706 11.1354 10.5392 11.0875 10.7397C11.0396 10.9403 11.0157 11.1727 11.0157 11.437V11.6797C11.0157 11.9417 11.0396 12.1742 11.0875 12.377C11.1354 12.5775 11.206 12.7472 11.2994 12.8862C11.3928 13.0229 11.5068 13.1266 11.6412 13.1973C11.7757 13.2679 11.9295 13.3032 12.1026 13.3032C12.2758 13.3032 12.4296 13.2679 12.5641 13.1973C12.6985 13.1266 12.8113 13.0229 12.9024 12.8862C12.9936 12.7472 13.0631 12.5775 13.1109 12.377C13.1588 12.1742 13.1827 11.9417 13.1827 11.6797Z" fill="black"/>
<path d="M18 15.3907V16H15.0849V15.48L16.4634 14.1124C16.602 13.9698 16.7112 13.8443 16.7912 13.736C16.8712 13.6258 16.9288 13.5274 16.9639 13.4408C17.001 13.3523 17.0195 13.2683 17.0195 13.1889C17.0195 13.0697 16.998 12.9677 16.9551 12.8829C16.9122 12.7962 16.8488 12.7294 16.7649 12.6825C16.6829 12.6355 16.5815 12.6121 16.4605 12.6121C16.3317 12.6121 16.2205 12.6409 16.1268 12.6987C16.0351 12.7565 15.9649 12.8368 15.9161 12.9397C15.8693 13.0427 15.8459 13.1591 15.8459 13.2891H15C15 13.0544 15.0605 12.8395 15.1815 12.6445C15.3024 12.4478 15.4732 12.2916 15.6937 12.176C15.9141 12.0587 16.1756 12 16.478 12C16.7766 12 17.0283 12.0451 17.2332 12.1354C17.44 12.2239 17.5961 12.3521 17.7015 12.52C17.8088 12.6861 17.8624 12.8847 17.8624 13.1158C17.8624 13.2458 17.84 13.3731 17.7951 13.4976C17.7502 13.6204 17.6859 13.7432 17.602 13.8659C17.52 13.9869 17.4205 14.1097 17.3034 14.2343C17.1863 14.3588 17.0566 14.4879 16.9141 14.6215L16.1737 15.3907H18Z" fill="black"/>
</svg>
