<svg width="41" height="42" viewBox="0 0 41 42" fill="none" xmlns="http://www.w3.org/2000/svg">
<path d="M20 17.4868C20 23.0097 12 37.4868 10 37.4868C8 37.4868 0 23.0097 0 17.4868C0 11.964 4.47715 7.48682 10 7.48682C15.5228 7.48682 20 11.964 20 17.4868Z" fill="#FFDA03"/>
<circle cx="10" cy="17.4868" r="5" fill="black" fill-opacity="0.87"/>
<path d="M40.3333 8.15348C40.3333 12.3877 34.2 23.4868 32.6667 23.4868C31.1333 23.4868 25 12.3877 25 8.15348C25 3.9193 28.4325 0.486816 32.6667 0.486816C36.9008 0.486816 40.3333 3.9193 40.3333 8.15348Z" fill="#FFDA03"/>
<circle cx="32.6667" cy="8.1534" r="3.83333" fill="black" fill-opacity="0.87"/>
<line x1="12.2913" y1="40.1029" x2="33.6161" y2="26.1955" stroke="black" stroke-width="2" stroke-linecap="round" stroke-dasharray="4 4"/>
</svg>
