<svg width="31" height="34" viewBox="0 0 31 34" fill="none" xmlns="http://www.w3.org/2000/svg">
<mask id="path-1-outside-1_7740_44007" maskUnits="userSpaceOnUse" x="0" y="9" width="31" height="25" fill="black">
<rect fill="white" y="9" width="31" height="25"/>
<path fill-rule="evenodd" clip-rule="evenodd" d="M2 11L11 14L20 11L29 14V32L20 29L11 32L2 29V11Z"/>
</mask>
<path d="M11 14L10.3675 15.8974C10.7781 16.0342 11.2219 16.0342 11.6325 15.8974L11 14ZM2 11L2.63246 9.10263C2.02256 8.89933 1.35212 9.00161 0.830579 9.37752C0.309042 9.75342 0 10.3571 0 11H2ZM20 11L20.6325 9.10263C20.2219 8.96579 19.7781 8.96579 19.3675 9.10263L20 11ZM29 14H31C31 13.1391 30.4491 12.3749 29.6325 12.1026L29 14ZM29 32L28.3675 33.8974C28.9774 34.1007 29.6479 33.9984 30.1694 33.6225C30.691 33.2466 31 32.6429 31 32H29ZM20 29L20.6325 27.1026C20.2219 26.9658 19.7781 26.9658 19.3675 27.1026L20 29ZM11 32L10.3675 33.8974C10.7781 34.0342 11.2219 34.0342 11.6325 33.8974L11 32ZM2 29H0C0 29.8609 0.55086 30.6251 1.36754 30.8974L2 29ZM11.6325 12.1026L2.63246 9.10263L1.36754 12.8974L10.3675 15.8974L11.6325 12.1026ZM19.3675 9.10263L10.3675 12.1026L11.6325 15.8974L20.6325 12.8974L19.3675 9.10263ZM19.3675 12.8974L28.3675 15.8974L29.6325 12.1026L20.6325 9.10263L19.3675 12.8974ZM27 14V32H31V14H27ZM29.6325 30.1026L20.6325 27.1026L19.3675 30.8974L28.3675 33.8974L29.6325 30.1026ZM11.6325 33.8974L20.6325 30.8974L19.3675 27.1026L10.3675 30.1026L11.6325 33.8974ZM1.36754 30.8974L10.3675 33.8974L11.6325 30.1026L2.63246 27.1026L1.36754 30.8974ZM0 11V29H4V11H0Z" fill="black" mask="url(#path-1-outside-1_7740_44007)"/>
<path d="M11 13V33M20 10V30" stroke="black"/>
<path d="M23 19.5C23.2149 19.5 23.4011 19.4079 23.5339 19.3233C23.6761 19.2326 23.8175 19.1111 23.9544 18.9754C24.2291 18.703 24.5338 18.3251 24.8506 17.8816C25.4868 16.9912 26.2111 15.7805 26.8932 14.474C27.5759 13.1665 28.223 11.75 28.7008 10.4449C29.1731 9.1548 29.5 7.92119 29.5 7C29.5 3.41015 26.5899 0.5 23 0.5C19.4101 0.5 16.5 3.41015 16.5 7C16.5 7.92119 16.8269 9.1548 17.2992 10.4449C17.777 11.75 18.4241 13.1665 19.1068 14.474C19.7889 15.7805 20.5132 16.9912 21.1494 17.8816C21.4662 18.3251 21.7709 18.703 22.0456 18.9754C22.1825 19.1111 22.3239 19.2326 22.4661 19.3233C22.5989 19.4079 22.7851 19.5 23 19.5Z" fill="black" stroke="#FFDA03"/>
<circle cx="23" cy="7" r="3" fill="#FFDA03"/>
</svg>
