<svg width="24" height="24" viewBox="0 0 24 24" fill="none" xmlns="http://www.w3.org/2000/svg">
<path fill-rule="evenodd" clip-rule="evenodd" d="M14.9922 10.6546C15.6192 9.94842 16 9.01868 16 8C16 5.79086 14.2091 4 12 4C9.79086 4 8 5.79086 8 8C8 9.01868 8.3808 9.94842 9.00781 10.6546C6.29634 11.9097 4.5 14.8139 4.5 18C4.5 19.1046 5.39543 20 6.5 20H17.5C18.6046 20 19.5 19.1046 19.5 18C19.5 14.8139 17.7037 11.9097 14.9922 10.6546ZM12 10C13.1046 10 14 9.10457 14 8C14 6.89543 13.1046 6 12 6C10.8954 6 10 6.89543 10 8C10 9.10457 10.8954 10 12 10ZM12 12C9.60527 12 7.56799 13.6696 6.81296 16C6.61028 16.6256 6.5 17.2987 6.5 18H8.5H15.5H17.5C17.5 17.2987 17.3897 16.6256 17.187 16C16.432 13.6696 14.3947 12 12 12Z" fill="black"/>
</svg>
