<svg width="24" height="24" viewBox="0 0 24 24" fill="none" xmlns="http://www.w3.org/2000/svg">
<path fill-rule="evenodd" clip-rule="evenodd" d="M11.2 4C10.7582 4 10.4 4.35818 10.4 4.8V5.80164C9.81277 5.95278 9.25818 6.18516 8.74888 6.48608L8.04026 5.77747C7.72783 5.46504 7.22131 5.46504 6.90889 5.77747L5.77751 6.90884C5.46509 7.22126 5.46509 7.72778 5.77751 8.04021L6.48613 8.74883C6.18518 9.25813 5.95278 9.81274 5.80164 10.4H4.8C4.35818 10.4 4 10.7582 4 11.2V12.8C4 13.2418 4.35818 13.6 4.8 13.6H5.80164C5.95278 14.1872 6.18516 14.7418 6.48611 15.2511L5.77747 15.9598C5.46504 16.2722 5.46504 16.7787 5.77747 17.0912L6.90884 18.2225C7.22126 18.535 7.72778 18.535 8.04021 18.2225L8.74885 17.5139C9.25815 17.8148 9.81277 18.0472 10.4 18.1984V19.2C10.4 19.6418 10.7582 20 11.2 20H12.8C13.2418 20 13.6 19.6418 13.6 19.2V18.1984C14.1873 18.0472 14.7419 17.8148 15.2512 17.5139L15.9599 18.2225C16.2723 18.535 16.7788 18.535 17.0912 18.2225L18.2226 17.0912C18.535 16.7788 18.535 16.2722 18.2226 15.9598L17.5139 15.2511C17.8148 14.7418 18.0472 14.1872 18.1984 13.6H19.2C19.6418 13.6 20 13.2418 20 12.8V11.2C20 10.7582 19.6418 10.4 19.2 10.4H18.1984C18.0472 9.81277 17.8148 9.25813 17.5139 8.74883L18.2225 8.04019C18.535 7.72778 18.535 7.22124 18.2225 6.90881L17.0912 5.77744C16.7788 5.46504 16.2722 5.46504 15.9598 5.77744L15.2511 6.48611C14.7418 6.18516 14.1872 5.95278 13.6 5.80164V4.8C13.6 4.35818 13.2418 4 12.8 4H11.2ZM12 16.8C14.651 16.8 16.8 14.651 16.8 12C16.8 9.34902 14.651 7.2 12 7.2C9.34902 7.2 7.2 9.34902 7.2 12C7.2 14.651 9.34902 16.8 12 16.8Z" fill="black"/>
</svg>
