<svg width="100" height="100" viewBox="0 0 100 100" fill="none" xmlns="http://www.w3.org/2000/svg">
<circle cx="50" cy="50" r="50" fill="#FFDA03"/>
<path d="M42.7974 40H39.4509L41.4864 23.3135H44.8329L42.7974 40ZM61.8664 23.3135L59.8079 40H58.0829C57.8222 40 57.6114 39.9578 57.4504 39.8735C57.2894 39.7815 57.1361 39.6358 56.9904 39.4365L50.8149 28.5345C50.7996 28.7338 50.7804 28.9293 50.7574 29.121C50.7421 29.305 50.7267 29.4775 50.7114 29.6385L49.4809 40H46.5369L48.5954 23.3135H50.3434C50.4891 23.3135 50.6117 23.3212 50.7114 23.3365C50.8111 23.3442 50.8954 23.3672 50.9644 23.4055C51.0411 23.4362 51.1101 23.486 51.1714 23.555C51.2327 23.624 51.2979 23.716 51.3669 23.831L57.5769 34.7445C57.5922 34.4992 57.6114 34.2615 57.6344 34.0315C57.6574 33.8015 57.6804 33.5868 57.7034 33.3875L58.9224 23.3135H61.8664ZM26.2683 54.476C26.1457 54.637 26.0268 54.7597 25.9118 54.844C25.7968 54.9207 25.655 54.959 25.4863 54.959C25.3253 54.959 25.1605 54.9015 24.9918 54.7865C24.8232 54.6638 24.6277 54.5297 24.4053 54.384C24.183 54.2383 23.9262 54.108 23.6348 53.993C23.3435 53.8703 22.9908 53.809 22.5768 53.809C22.1858 53.809 21.8408 53.8665 21.5418 53.9815C21.2505 54.0888 21.0052 54.2422 20.8058 54.4415C20.6065 54.6408 20.457 54.8747 20.3573 55.143C20.2577 55.4113 20.2078 55.6988 20.2078 56.0055C20.2078 56.3352 20.296 56.6112 20.4723 56.8335C20.6487 57.0558 20.8787 57.2513 21.1623 57.42C21.4537 57.5887 21.7833 57.742 22.1513 57.88C22.527 58.0103 22.9065 58.1522 23.2898 58.3055C23.6732 58.4588 24.0488 58.6352 24.4168 58.8345C24.7925 59.0338 25.1222 59.283 25.4058 59.582C25.6972 59.8733 25.931 60.226 26.1073 60.64C26.2837 61.054 26.3718 61.5562 26.3718 62.1465C26.3718 62.9668 26.2262 63.745 25.9348 64.481C25.6512 65.2093 25.241 65.8495 24.7043 66.4015C24.1753 66.9458 23.5313 67.379 22.7723 67.701C22.0133 68.023 21.1585 68.184 20.2078 68.184C19.7248 68.184 19.2418 68.1303 18.7588 68.023C18.2835 67.9157 17.8312 67.7662 17.4018 67.5745C16.9725 67.3828 16.5738 67.1528 16.2058 66.8845C15.8378 66.6162 15.5235 66.3172 15.2628 65.9875L16.4473 64.412C16.5393 64.3047 16.6543 64.2127 16.7923 64.136C16.938 64.0517 17.0837 64.0095 17.2293 64.0095C17.4287 64.0095 17.6242 64.09 17.8158 64.251C18.0152 64.4043 18.2375 64.573 18.4828 64.757C18.7358 64.941 19.031 65.1135 19.3683 65.2745C19.7133 65.4278 20.135 65.5045 20.6333 65.5045C21.423 65.5045 22.0363 65.286 22.4733 64.849C22.918 64.4043 23.1403 63.7757 23.1403 62.963C23.1403 62.595 23.0522 62.296 22.8758 62.066C22.6995 61.8283 22.4695 61.629 22.1858 61.468C21.9022 61.307 21.5763 61.1652 21.2083 61.0425C20.848 60.9198 20.4762 60.7895 20.0928 60.6515C19.7095 60.5058 19.3338 60.341 18.9658 60.157C18.6055 59.9653 18.2835 59.72 17.9998 59.421C17.7162 59.122 17.4862 58.7578 17.3098 58.3285C17.1335 57.8915 17.0453 57.3548 17.0453 56.7185C17.0453 55.9902 17.1795 55.2925 17.4478 54.6255C17.7238 53.9508 18.1148 53.3567 18.6208 52.843C19.1268 52.3217 19.7402 51.9077 20.4608 51.601C21.1815 51.2943 21.9903 51.141 22.8873 51.141C23.3473 51.141 23.792 51.1908 24.2213 51.2905C24.6583 51.3902 25.0647 51.5282 25.4403 51.7045C25.816 51.8732 26.1572 52.0763 26.4638 52.314C26.7782 52.5517 27.0465 52.8085 27.2688 53.0845L26.2683 54.476ZM33.6296 53.924L33.0891 58.34H38.1146L37.7811 60.8585H32.7786L32.2151 65.3895H38.7126L38.3906 68H28.5466L30.6051 51.3135H40.4261L40.0926 53.924H33.6296ZM50.8596 65.2975L50.5261 68H41.3376L43.3961 51.3135H46.7196L44.9946 65.2975H50.8596ZM62.5052 65.2975L62.1717 68H52.9832L55.0417 51.3135H58.3652L56.6402 65.2975H62.5052ZM73.5987 61.6865L72.6097 56.408C72.5561 56.132 72.4947 55.8062 72.4257 55.4305C72.3567 55.0548 72.2916 54.6485 72.2302 54.2115C72.0616 54.6485 71.8967 55.0548 71.7357 55.4305C71.5747 55.8062 71.4329 56.1358 71.3102 56.4195L69.0447 61.6865H73.5987ZM78.2217 68H75.6457C75.3544 68 75.1282 67.931 74.9672 67.793C74.8062 67.655 74.6951 67.4748 74.6337 67.2525L74.0242 63.998H68.0557L66.6527 67.2525C66.5531 67.4518 66.3997 67.6282 66.1927 67.7815C65.9857 67.9272 65.7481 68 65.4797 68H62.8577L70.8847 51.3135H74.2887L78.2217 68ZM85.0695 51.3135L84.2645 57.903C84.1801 58.6083 84.0575 59.3022 83.8965 59.9845C83.7355 60.6592 83.5515 61.3683 83.3445 62.112H81.2745C81.2438 61.3683 81.2361 60.6592 81.2515 59.9845C81.2668 59.3022 81.3205 58.6083 81.4125 57.903L82.2175 51.3135H85.0695ZM80.09 66.3325C80.09 66.0795 80.136 65.8418 80.228 65.6195C80.3276 65.3895 80.458 65.194 80.619 65.033C80.7876 64.8643 80.9831 64.734 81.2055 64.642C81.4355 64.5423 81.6846 64.4925 81.953 64.4925C82.2136 64.4925 82.459 64.5423 82.689 64.642C82.919 64.734 83.1183 64.8643 83.287 65.033C83.4556 65.194 83.586 65.3895 83.678 65.6195C83.7776 65.8418 83.8275 66.0795 83.8275 66.3325C83.8275 66.5932 83.7776 66.8347 83.678 67.057C83.586 67.2793 83.4556 67.4748 83.287 67.6435C83.1183 67.8045 82.919 67.931 82.689 68.023C82.459 68.115 82.2136 68.161 81.953 68.161C81.6846 68.161 81.4355 68.115 81.2055 68.023C80.9831 67.931 80.7876 67.8045 80.619 67.6435C80.458 67.4748 80.3276 67.2793 80.228 67.057C80.136 66.8347 80.09 66.5932 80.09 66.3325Z" fill="black" fill-opacity="0.87"/>
</svg>
