<svg width="24" height="24" viewBox="0 0 24 24" fill="none" xmlns="http://www.w3.org/2000/svg">
<path d="M15.3461 9.76487C14.6274 8.70013 13.4097 8 12.0284 8L12.0284 12L9.19995 14.8284C9.92381 15.5523 10.9238 16 12.0284 16C13.8175 16 15.3323 14.8254 15.8436 13.2053C15.7285 13.053 15.6197 12.8637 15.5426 12.6324L15.5339 12.6063L15.5259 12.58C15.4275 12.2553 15.3959 11.8824 15.3815 11.707C15.3615 11.4635 15.3488 11.1964 15.3407 10.9584C15.3325 10.7173 15.3284 10.4875 15.3271 10.312C15.3264 10.2249 15.3264 10.145 15.3271 10.0804C15.3275 10.0496 15.3281 10.012 15.3294 9.97467C15.33 9.95744 15.3313 9.92618 15.3338 9.8893C15.3351 9.87141 15.3375 9.83878 15.3421 9.79861L15.3423 9.79652C15.343 9.79073 15.3442 9.77988 15.3461 9.76487Z" fill="black"/>
<path d="M13 2H11V4.06189C9.53928 4.24404 8.20086 4.82 7.09434 5.68016L5.63602 4.22183L4.2218 5.63605L5.68013 7.09437C4.62708 8.44906 4 10.1513 4 12C4 16.4183 7.58172 20 12 20C15.715 20 18.8386 17.4677 19.7388 14.0351C19.2072 14.0368 18.6967 14.0359 18.2866 14.0318C18.0429 14.0294 17.823 14.0257 17.6514 14.0203C16.822 16.3401 14.6048 18 12 18C8.68629 18 6 15.3137 6 12C6 8.68629 8.68629 6 12 6C13.3471 6 14.5906 6.44396 15.592 7.19354C15.5481 7.09233 15.5232 7.01258 15.5129 6.97877C15.4803 6.8721 15.4631 6.7837 15.4575 6.7544C15.4429 6.67883 15.4334 6.60893 15.4281 6.56868C15.4161 6.47686 15.4049 6.3688 15.3949 6.26214C15.3744 6.04332 15.353 5.76172 15.3373 5.48017C15.3236 5.23589 15.3124 4.96098 15.3126 4.71589C14.5925 4.38791 13.8153 4.16356 13 4.06189V2Z" fill="black"/>
<path d="M20.5089 9.85497C20.8389 9.48097 23.0499 6.35697 23.0609 6.31297C23.1049 6.15897 22.9179 4.27797 22.8739 4.25597C22.8299 4.24497 17.5059 4.25597 17.3629 4.31097C17.2309 4.35497 17.3959 6.38997 17.4289 6.40097C17.4729 6.41197 19.6179 6.40097 19.9039 6.40097L19.8929 6.45597C19.5519 6.90697 17.3519 9.97597 17.3299 10.02C17.3189 10.064 17.3299 11.637 17.4399 12C17.4619 12.066 22.9179 12.033 23.0059 11.967C23.0719 11.912 23.0939 9.96497 23.0389 9.94297C22.8849 9.87697 20.8389 9.88797 20.5089 9.89897V9.85497Z" fill="black"/>
</svg>
