<svg width="40" height="40" viewBox="0 0 40 40" fill="none" xmlns="http://www.w3.org/2000/svg">
<circle cx="20" cy="20" r="20" fill="#006AA7"/>
<path d="M35 19.9999C35 19.4476 34.5523 18.9999 34 18.9999C33.4477 18.9999 33 19.4476 33 19.9999H35ZM15.8212 7.68576C16.3443 7.50834 16.6244 6.94053 16.447 6.41752C16.2696 5.89451 15.7018 5.61435 15.1788 5.79177L15.8212 7.68576ZM14.5523 6.02004C14.0378 6.22069 13.7833 6.80047 13.9839 7.31502C14.1846 7.82956 14.7644 8.08403 15.2789 7.88338L14.5523 6.02004ZM9.77905 11.9657C10.1207 11.5318 10.0458 10.903 9.61186 10.5614C9.17791 10.2198 8.54918 10.2947 8.20757 10.7286L9.77905 11.9657ZM7.43085 11.8105C7.12896 12.273 7.25913 12.8926 7.7216 13.1945C8.18407 13.4964 8.80371 13.3663 9.1056 12.9038L7.43085 11.8105ZM7.01261 19.4216C7.03673 18.8699 6.60899 18.403 6.05724 18.3789C5.50548 18.3548 5.03864 18.7825 5.01452 19.3343L7.01261 19.4216ZM5.01032 20.561C5.03064 21.1129 5.49452 21.5439 6.04643 21.5235C6.59834 21.5032 7.02928 21.0393 7.00896 20.4874L5.01032 20.561ZM8.50359 26.0749C8.24511 25.5868 7.63992 25.4007 7.15185 25.6592C6.66379 25.9176 6.47768 26.5228 6.73616 27.0109L8.50359 26.0749ZM7.29802 27.982C7.59229 28.4494 8.20971 28.5897 8.67707 28.2954C9.14443 28.0011 9.28474 27.3837 8.99047 26.9164L7.29802 27.982ZM13.0835 31.0094C12.6161 30.7151 11.9987 30.8554 11.7045 31.3228C11.4102 31.7902 11.5505 32.4076 12.0179 32.7018L13.0835 31.0094ZM12.989 33.2637C13.477 33.5222 14.0822 33.3361 14.3407 32.848C14.5992 32.3599 14.4131 31.7548 13.925 31.4963L12.989 33.2637ZM19.5124 32.9909C18.9605 32.9706 18.4966 33.4015 18.4763 33.9534C18.456 34.5053 18.8869 34.9692 19.4389 34.9895L19.5124 32.9909ZM20.5612 34.9895C21.1131 34.9692 21.544 34.5053 21.5237 33.9534C21.5034 33.4015 21.0395 32.9706 20.4876 32.9909L20.5612 34.9895ZM26.075 31.4963C25.5869 31.7548 25.4008 32.3599 25.6593 32.848C25.9178 33.3361 26.523 33.5222 27.011 33.2637L26.075 31.4963ZM27.9822 32.7018C28.4495 32.4076 28.5898 31.7901 28.2955 31.3228C28.0013 30.8554 27.3839 30.7151 26.9165 31.0094L27.9822 32.7018ZM31.0095 26.9164C30.7153 27.3837 30.8556 28.0011 31.3229 28.2954C31.7903 28.5897 32.4077 28.4494 32.702 27.982L31.0095 26.9164ZM33.2638 27.0109C33.5223 26.5228 33.3362 25.9176 32.8481 25.6592C32.3601 25.4007 31.7549 25.5868 31.4964 26.0749L33.2638 27.0109ZM32.991 20.4874C32.9707 21.0393 33.4017 21.5032 33.9536 21.5235C34.5055 21.5439 34.9694 21.1129 34.9897 20.561L32.991 20.4874ZM15.1788 5.79177C14.9678 5.86334 14.7589 5.93947 14.5523 6.02004L15.2789 7.88338C15.4578 7.81362 15.6386 7.74772 15.8212 7.68576L15.1788 5.79177ZM8.20757 10.7286C7.93324 11.0771 7.674 11.4381 7.43085 11.8105L9.1056 12.9038C9.31638 12.5809 9.54115 12.2679 9.77905 11.9657L8.20757 10.7286ZM5.01452 19.3343C5.00487 19.555 5 19.7769 5 19.9999H7C7 19.806 7.00423 19.6133 7.01261 19.4216L5.01452 19.3343ZM5 19.9999C5 20.1877 5.00346 20.3748 5.01032 20.561L7.00896 20.4874C7.00301 20.3257 7 20.1631 7 19.9999H5ZM6.73616 27.0109C6.91161 27.3422 7.0991 27.6661 7.29802 27.982L8.99047 26.9164C8.81805 26.6425 8.65559 26.3619 8.50359 26.0749L6.73616 27.0109ZM12.0179 32.7018C12.3338 32.9008 12.6577 33.0882 12.989 33.2637L13.925 31.4963C13.638 31.3443 13.3573 31.1818 13.0835 31.0094L12.0179 32.7018ZM19.4389 34.9895C19.6251 34.9964 19.8122 34.9999 20 34.9999V32.9999C19.8367 32.9999 19.6742 32.9969 19.5124 32.9909L19.4389 34.9895ZM20 34.9999C20.1878 34.9999 20.3749 34.9964 20.5612 34.9895L20.4876 32.9909C20.3258 32.9969 20.1633 32.9999 20 32.9999V34.9999ZM27.011 33.2637C27.3423 33.0882 27.6662 32.9008 27.9822 32.7018L26.9165 31.0094C26.6427 31.1818 26.362 31.3443 26.075 31.4963L27.011 33.2637ZM32.702 27.982C32.9009 27.6661 33.0884 27.3422 33.2638 27.0109L31.4964 26.0749C31.3444 26.3619 31.1819 26.6425 31.0095 26.9164L32.702 27.982ZM34.9897 20.561C34.9965 20.3748 35 20.1877 35 19.9999H33C33 20.1631 32.997 20.3257 32.991 20.4874L34.9897 20.561Z" fill="white"/>
<circle cx="20" cy="20" r="3" fill="white"/>
<line x1="20.2798" y1="18.2648" x2="22.3398" y2="6.44291" stroke="white" stroke-width="3" stroke-linecap="round"/>
<line x1="20.7682" y1="19.7229" x2="28.6955" y2="16.2318" stroke="white" stroke-width="3" stroke-linecap="round"/>
</svg>
